HIERARCHY
ROOT Root
{
  OFFSET 0.0 0.0 0.0
  CHANNELS 6 Xposition Yposition Zposition Zrotation Yrotation Xrotation
  JOINT Hips
  {
    OFFSET 0.0 100.0 0.0
    CHANNELS 6 Xposition Yposition Zposition Zrotation Yrotation Xrotation
    JOINT Spine1
    {
      OFFSET 5.003913 -0.037094 -0.013727
      CHANNELS 3 Zrotation Yrotation Xrotation
      JOINT Spine2
      {
        OFFSET 7.125363 -1e-06 0.0
        CHANNELS 3 Zrotation Yrotation Xrotation
        JOINT Chest
        {
          OFFSET 7.594027 1e-06 0.0
          CHANNELS 3 Zrotation Yrotation Xrotation
          JOINT Neck1
          {
            OFFSET 26.313086 -0.460272 -0.181672
            CHANNELS 3 Zrotation Yrotation Xrotation
            JOINT Neck2
            {
              OFFSET 8.045911 0.0 0.0
              CHANNELS 3 Zrotation Yrotation Xrotation
              JOINT Head
              {
                OFFSET 6.432774 0.0 0.0
                CHANNELS 3 Zrotation Yrotation Xrotation
                JOINT HeadEnd
                {
                  OFFSET 16.169773 0.06451 0.00362
                  CHANNELS 3 Zrotation Yrotation Xrotation
                }
                JOINT Jaw
                {
                  OFFSET 0.108741 3.12938 0.002639
                  CHANNELS 3 Zrotation Yrotation Xrotation
                }
                JOINT LeftEye
                {
                  OFFSET 4.45173 8.166359 3.206392
                  CHANNELS 3 Zrotation Yrotation Xrotation
                }
                JOINT RightEye
                {
                  OFFSET 4.436895 8.135758 -3.222429
                  CHANNELS 3 Zrotation Yrotation Xrotation
                }
              }
            }
          }
          JOINT LeftShoulder
          {
            OFFSET 23.218927 5.195579 1.621656
            CHANNELS 3 Zrotation Yrotation Xrotation
            JOINT LeftArm
            {
              OFFSET 15.902118 2e-06 -2e-06
              CHANNELS 3 Zrotation Yrotation Xrotation
              JOINT LeftForeArm
              {
                OFFSET 28.739307 0.0 -1e-06
                CHANNELS 3 Zrotation Yrotation Xrotation
                JOINT LeftHand
                {
                  OFFSET 27.093981 -4e-06 0.0
                  CHANNELS 3 Zrotation Yrotation Xrotation
                  JOINT LeftHandThumb1
                  {
                    OFFSET 2.276781 3.380274 0.83384
                    CHANNELS 3 Zrotation Yrotation Xrotation
                    JOINT LeftHandThumb2
                    {
                      OFFSET 4.705309 -1e-06 -1e-06
                      CHANNELS 3 Zrotation Yrotation Xrotation
                      JOINT LeftHandThumb3
                      {
                        OFFSET 2.798515 0.0 3e-06
                        CHANNELS 3 Zrotation Yrotation Xrotation
                        JOINT LeftHandThumbEnd
                        {
                          OFFSET 3.180793 4e-06 -4e-06
                          CHANNELS 3 Zrotation Yrotation Xrotation
                        }
                      }
                    }
                  }
                  JOINT LeftHandIndex1
                  {
                    OFFSET 3.247786 2.352677 0.137192
                    CHANNELS 3 Zrotation Yrotation Xrotation
                    JOINT LeftHandIndex2
                    {
                      OFFSET 6.367095 1e-06 0.0
                      CHANNELS 3 Zrotation Yrotation Xrotation
                      JOINT LeftHandIndex3
                      {
                        OFFSET 3.662364 0.0 0.0
                        CHANNELS 3 Zrotation Yrotation Xrotation
                        JOINT LeftHandIndex4
                        {
                          OFFSET 2.329242 4e-06 -4e-06
                          CHANNELS 3 Zrotation Yrotation Xrotation
                          JOINT LeftHandIndexEnd
                          {
                            OFFSET 2.767823 1e-06 0.0
                            CHANNELS 3 Zrotation Yrotation Xrotation
                          }
                        }
                      }
                    }
                  }
                  JOINT LeftHandMiddle1
                  {
                    OFFSET 3.163612 0.945023 -0.406112
                    CHANNELS 3 Zrotation Yrotation Xrotation
                    JOINT LeftHandMiddle2
                    {
                      OFFSET 6.276789 3e-06 0.0
                      CHANNELS 3 Zrotation Yrotation Xrotation
                      JOINT LeftHandMiddle3
                      {
                        OFFSET 4.35652 -1e-06 4e-06
                        CHANNELS 3 Zrotation Yrotation Xrotation
                        JOINT LeftHandMiddle4
                        {
                          OFFSET 2.996877 0.0 8e-06
                          CHANNELS 3 Zrotation Yrotation Xrotation
                          JOINT LeftHandMiddleEnd
                          {
                            OFFSET 2.323256 3e-06 -4e-06
                            CHANNELS 3 Zrotation Yrotation Xrotation
                          }
                        }
                      }
                    }
                  }
                  JOINT LeftHandRing1
                  {
                    OFFSET 2.882606 -0.309162 0.107445
                    CHANNELS 3 Zrotation Yrotation Xrotation
                    JOINT LeftHandRing2
                    {
                      OFFSET 6.033198 0.0 4e-06
                      CHANNELS 3 Zrotation Yrotation Xrotation
                      JOINT LeftHandRing3
                      {
                        OFFSET 4.350578 3e-06 0.0
                        CHANNELS 3 Zrotation Yrotation Xrotation
                        JOINT LeftHandRing4
                        {
                          OFFSET 2.651321 2e-06 -7e-06
                          CHANNELS 3 Zrotation Yrotation Xrotation
                          JOINT LeftHandRingEnd
                          {
                            OFFSET 1.937663 1e-06 -4e-06
                            CHANNELS 3 Zrotation Yrotation Xrotation
                          }
                        }
                      }
                    }
                  }
                  JOINT LeftHandPinky1
                  {
                    OFFSET 2.865315 -1.525436 0.575687
                    CHANNELS 3 Zrotation Yrotation Xrotation
                    JOINT LeftHandPinky2
                    {
                      OFFSET 5.54936 1e-06 -8e-06
                      CHANNELS 3 Zrotation Yrotation Xrotation
                      JOINT LeftHandPinky3
                      {
                        OFFSET 3.070974 0.0 -4e-06
                        CHANNELS 3 Zrotation Yrotation Xrotation
                        JOINT LeftHandPinky4
                        {
                          OFFSET 1.549672 1e-06 0.0
                          CHANNELS 3 Zrotation Yrotation Xrotation
                          JOINT LeftHandPinkyEnd
                          {
                            OFFSET 1.952123 0.0 0.0
                            CHANNELS 3 Zrotation Yrotation Xrotation
                          }
                        }
                      }
                    }
                  }
                }
              }
            }
          }
          JOINT RightShoulder
          {
            OFFSET 23.161716 5.296122 -1.380114
            CHANNELS 3 Zrotation Yrotation Xrotation
            JOINT RightArm
            {
              OFFSET -16.027195 -2e-06 1.1e-05
              CHANNELS 3 Zrotation Yrotation Xrotation
              JOINT RightForeArm
              {
                OFFSET -28.736639 4e-06 2e-06
                CHANNELS 3 Zrotation Yrotation Xrotation
                JOINT RightHand
                {
                  OFFSET -27.133619 6e-06 0.0
                  CHANNELS 3 Zrotation Yrotation Xrotation
                  JOINT RightHandThumb1
                  {
                    OFFSET -2.274328 -3.351035 -0.83067
                    CHANNELS 3 Zrotation Yrotation Xrotation
                    JOINT RightHandThumb2
                    {
                      OFFSET -4.703594 -3e-06 2e-06
                      CHANNELS 3 Zrotation Yrotation Xrotation
                      JOINT RightHandThumb3
                      {
                        OFFSET -2.794935 -4e-06 -3e-06
                        CHANNELS 3 Zrotation Yrotation Xrotation
                        JOINT RightHandThumbEnd
                        {
                          OFFSET -3.183852 4e-06 1e-06
                          CHANNELS 3 Zrotation Yrotation Xrotation
                        }
                      }
                    }
                  }
                  JOINT RightHandIndex1
                  {
                    OFFSET -3.253496 -2.33755 -0.127667
                    CHANNELS 3 Zrotation Yrotation Xrotation
                    JOINT RightHandIndex2
                    {
                      OFFSET -6.344434 0.0 0.0
                      CHANNELS 3 Zrotation Yrotation Xrotation
                      JOINT RightHandIndex3
                      {
                        OFFSET -3.654871 0.0 -8e-06
                        CHANNELS 3 Zrotation Yrotation Xrotation
                        JOINT RightHandIndex4
                        {
                          OFFSET -2.327586 -1e-06 0.0
                          CHANNELS 3 Zrotation Yrotation Xrotation
                          JOINT RightHandIndexEnd
                          {
                            OFFSET -2.770001 3e-06 8e-06
                            CHANNELS 3 Zrotation Yrotation Xrotation
                          }
                        }
                      }
                    }
                  }
                  JOINT RightHandMiddle1
                  {
                    OFFSET -3.168223 -0.944764 0.411762
                    CHANNELS 3 Zrotation Yrotation Xrotation
                    JOINT RightHandMiddle2
                    {
                      OFFSET -6.266691 -1e-06 -4e-06
                      CHANNELS 3 Zrotation Yrotation Xrotation
                      JOINT RightHandMiddle3
                      {
                        OFFSET -4.348901 0.0 0.0
                        CHANNELS 3 Zrotation Yrotation Xrotation
                        JOINT RightHandMiddle4
                        {
                          OFFSET -3.00024 2e-06 -4e-06
                          CHANNELS 3 Zrotation Yrotation Xrotation
                          JOINT RightHandMiddleEnd
                          {
                            OFFSET -2.321477 -4e-06 -4e-06
                            CHANNELS 3 Zrotation Yrotation Xrotation
                          }
                        }
                      }
                    }
                  }
                  JOINT RightHandRing1
                  {
                    OFFSET -2.885654 0.293261 -0.119232
                    CHANNELS 3 Zrotation Yrotation Xrotation
                    JOINT RightHandRing2
                    {
                      OFFSET -6.032835 -1e-06 -4e-06
                      CHANNELS 3 Zrotation Yrotation Xrotation
                      JOINT RightHandRing3
                      {
                        OFFSET -4.33881 0.0 -4e-06
                        CHANNELS 3 Zrotation Yrotation Xrotation
                        JOINT RightHandRing4
                        {
                          OFFSET -2.654903 -4e-06 -4e-06
                          CHANNELS 3 Zrotation Yrotation Xrotation
                          JOINT RightHandRingEnd
                          {
                            OFFSET -1.935122 0.0 4e-06
                            CHANNELS 3 Zrotation Yrotation Xrotation
                          }
                        }
                      }
                    }
                  }
                  JOINT RightHandPinky1
                  {
                    OFFSET -2.866241 1.503904 -0.60527
                    CHANNELS 3 Zrotation Yrotation Xrotation
                    JOINT RightHandPinky2
                    {
                      OFFSET -5.553177 -2e-06 0.0
                      CHANNELS 3 Zrotation Yrotation Xrotation
                      JOINT RightHandPinky3
                      {
                        OFFSET -3.062664 -1e-06 -4e-06
                        CHANNELS 3 Zrotation Yrotation Xrotation
                        JOINT RightHandPinky4
                        {
                          OFFSET -1.546529 2e-06 4e-06
                          CHANNELS 3 Zrotation Yrotation Xrotation
                          JOINT RightHandPinkyEnd
                          {
                            OFFSET -1.952341 0.0 -4e-06
                            CHANNELS 3 Zrotation Yrotation Xrotation
                          }
                        }
                      }
                    }
                  }
                }
              }
            }
          }
        }
      }
    }
    JOINT LeftLeg
    {
      OFFSET -8.443107 2.567604 10.043214
      CHANNELS 3 Zrotation Yrotation Xrotation
      JOINT LeftShin
      {
        OFFSET 43.229198 1e-06 -1e-06
        CHANNELS 3 Zrotation Yrotation Xrotation
        JOINT LeftFoot
        {
          OFFSET 42.298611 1e-06 1e-06
          CHANNELS 3 Zrotation Yrotation Xrotation
          JOINT LeftToeBase
          {
            OFFSET 14.165858 1e-06 0.0
            CHANNELS 3 Zrotation Yrotation Xrotation
            JOINT LeftToeEnd
            {
              OFFSET 6.7141 -0.234461 0.0
              CHANNELS 3 Zrotation Yrotation Xrotation
            }
          }
        }
      }
    }
    JOINT RightLeg
    {
      OFFSET -8.303923 2.592729 -10.047278
      CHANNELS 3 Zrotation Yrotation Xrotation
      JOINT RightShin
      {
        OFFSET -43.369682 0.0 1e-06
        CHANNELS 3 Zrotation Yrotation Xrotation
        JOINT RightFoot
        {
          OFFSET -42.260784 4e-06 2e-06
          CHANNELS 3 Zrotation Yrotation Xrotation
          JOINT RightToeBase
          {
            OFFSET -14.222245 -2e-06 -1e-06
            CHANNELS 3 Zrotation Yrotation Xrotation
            JOINT RightToeEnd
            {
              OFFSET -6.660062 0.232574 -2e-06
              CHANNELS 3 Zrotation Yrotation Xrotation
            }
          }
        }
      }
    }
  }
}
MOTION
Frames: 4
Frame Time: 0.03333333333333333
0.0 0.0 0.0 0.0 -0.0 0.0 4.680324 48.159821 2.124053 87.789307 -59.686928 88.817802 10.234462 0.215298 -0.21357 -4.717964 0.204609 0.23669 19.645643 1.595371 -0.506834 13.219466 -5.012449 2.502387 -2.575287 -0.12018 0.71826 -29.197018 -0.583168 0.699367 6e-06 0.0 0.0 -0.156565 0.061142 -0.025903 -0.109928 0.123047 -0.012902 -0.099903 -0.003435 -0.033655 -59.766941 -69.635513 66.079651 90.840157 2.347264 -20.634903 10.72908 -1.473269 0.003546 7.230563 70.036148 6.781448 17.636629 -26.322733 52.411182 -19.466656 -14.395594 29.410381 -1e-06 -8.774818 -2e-06 15.460258 -17.812292 6.810015 -0.609776 -1.795656 -3.889327 -4.807087 -11.046808 -2.93785 3e-06 -20.976015 1e-06 -5.019971 -25.033552 -4.031879 6e-06 -1e-06 2e-06 -10.634533 -5.686973 -3.565588 10.573271 -17.922947 -3.113899 2e-06 -13.821209 1e-06 -0.501778 -31.181494 -4.027014 -10.527103 -58.738861 6.847238 -13.982712 -7.150198 -2.875042 13.772725 -8.401489 -3.21824 0.347732 -34.211544 0.771657 -0.963029 -17.733366 2.62102 0.0 -1e-06 0.0 -17.346415 -20.095213 -4.201783 21.757551 -1.638377 3.866428 1e-06 -6.338824 1e-06 -1.697589 -22.591738 -6.194005 -0.0 -5e-06 -2e-06 145.125977 -76.921745 41.396812 89.368675 3.859906 -13.47787 17.023388 -0.890141 -0.21951 31.146513 68.743835 30.506252 22.182106 -20.375898 49.933327 -16.701817 -16.74353 28.476538 -1e-06 -12.690601 1e-06 16.727327 -18.301636 2.4358 -0.10592 -1.513857 -4.275883 -5.039039 -5.612871 -2.953555 3e-06 -11.020527 -1e-06 -6.111296 -15.89533 -3.840471 -0.0 0.0 1e-06 -10.283369 -5.680288 -4.341839 11.028292 -11.302406 -2.372633 -1.384267 -14.238579 -6.320122 -0.625439 -26.924191 -3.827603 -4.916894 -50.083031 -3.686662 -13.708523 -7.363476 -3.720938 18.141148 -14.052739 -3.242676 5e-06 -18.787271 -2e-06 -0.429712 -8.45604 2.555504 -1e-06 0.0 -0.0 -15.923532 -20.094482 -5.473586 30.419207 -7.190824 1.735923 3e-06 -8.162925 -0.0 -1.861904 -22.861469 -6.167942 -0.0 -2e-06 -1e-06 112.658699 -9.230328 -0.542131 118.3367 0.186219 0.441357 -73.362671 0.612481 10.583366 -18.206568 1.895215 1.665945 -0.999998 0.0 0.0 -73.237427 -4.808234 3.585911 118.684425 -0.475311 0.112891 -58.368324 15.76177 -1.364145 -13.166995 0.581627 1.802391 -1.000003 0.0 0.0 
0.0 0.0 0.0 0.0 -0.0 0.0 4.66539 48.164898 2.141542 87.514648 -59.755878 89.061882 10.180844 0.370654 -0.158678 -4.792202 0.233728 0.292175 19.736622 1.605145 -0.416987 13.258159 -5.112391 2.355917 -2.575783 -0.114276 0.672641 -29.07617 -0.552372 0.67209 6e-06 0.0 0.0 -0.163923 0.025112 -0.014445 -0.089733 0.081362 0.001728 -0.08583 -0.031986 -0.027107 -59.894299 -69.769028 66.584114 91.148209 2.65158 -21.034863 10.469547 -1.42727 0.006037 9.201406 69.894997 8.516355 17.636629 -26.322731 52.411186 -19.46666 -14.395597 29.410389 -1e-06 -8.77482 -1e-06 15.445522 -17.915737 6.840425 -0.609776 -1.795654 -3.889327 -4.807088 -11.046811 -2.93785 3e-06 -20.976017 0.0 -5.019969 -25.033556 -4.031881 6e-06 -1e-06 1e-06 -10.634534 -5.68697 -3.565587 10.573275 -17.922951 -3.113901 2e-06 -13.821209 1e-06 -0.501778 -31.181505 -4.027015 -10.492266 -58.902008 6.876483 -13.982714 -7.150197 -2.875042 13.77273 -8.401493 -3.218241 0.347733 -34.211552 0.771656 -0.963029 -17.73337 2.62102 -0.0 -0.0 -1e-06 -17.346416 -20.095217 -4.201782 21.757555 -1.638376 3.866427 1e-06 -6.338822 1e-06 -1.697589 -22.591738 -6.194006 -0.0 -5e-06 -2e-06 145.281021 -76.75267 41.416798 89.313309 4.190485 -13.732652 16.749487 -0.884218 -0.22629 31.078651 68.593277 30.116367 22.182108 -20.375893 49.933319 -16.701807 -16.743528 28.476528 -4e-06 -12.690598 -1e-06 16.596365 -18.283758 2.497905 -0.105919 -1.513855 -4.275881 -5.03904 -5.612869 -2.953556 3e-06 -11.02052 -2e-06 -6.111296 -15.89533 -3.84047 -0.0 -1e-06 -1e-06 -10.283369 -5.680287 -4.341838 11.028291 -11.302402 -2.372632 -1.384268 -14.238577 -6.32012 -0.625439 -26.924183 -3.8276 -4.875436 -50.092957 -3.676914 -13.708522 -7.363474 -3.72094 18.141146 -14.052738 -3.242673 5e-06 -18.78727 -0.0 -0.429711 -8.456039 2.555504 -1e-06 -1e-06 -0.0 -15.923532 -20.094482 -5.473585 30.419205 -7.190824 1.735926 3e-06 -8.162922 -1e-06 -1.861903 -22.861464 -6.167938 1e-06 -2e-06 -1e-06 112.550446 -9.245655 -0.360068 118.348602 0.161492 0.447035 -73.35881 0.696683 10.823576 -18.184767 1.923602 1.624732 -0.999998 0.0 0.0 -73.269119 -4.778213 3.443175 118.5952 -0.419594 0.106588 -58.087776 15.489615 -1.369528 -13.023013 0.580923 1.809931 -1.000003 0.0 1e-06 
0.0 0.0 0.0 0.0 -0.0 0.0 4.616586 48.173458 2.167936 87.458023 -59.805008 89.173897 10.092702 0.45934 -0.093731 -4.853463 0.256006 0.348627 19.829634 1.602207 -0.387497 13.297278 -5.193361 2.213455 -2.588479 -0.10772 0.624254 -29.020845 -0.592941 0.633842 7e-06 0.0 0.0 -0.164278 0.001613 -0.005772 -0.117831 0.055038 0.001844 -0.111859 -0.05179 -0.012774 -59.610401 -69.885704 66.556938 91.362221 2.826087 -21.145346 10.295979 -1.383929 0.011828 10.077091 69.758766 9.134813 17.636629 -26.322735 52.411186 -19.466661 -14.395597 29.410389 -1e-06 -8.774821 -2e-06 15.46466 -17.951899 6.81989 -0.609777 -1.795653 -3.889328 -4.807088 -11.046813 -2.93785 4e-06 -20.976019 0.0 -5.01997 -25.033562 -4.03188 6e-06 -1e-06 -0.0 -10.634535 -5.686971 -3.565587 10.573277 -17.922951 -3.113901 3e-06 -13.821213 1e-06 -0.501778 -31.181507 -4.027015 -10.42078 -58.990753 6.841101 -13.982716 -7.150197 -2.875043 13.772731 -8.401495 -3.218241 0.347734 -34.211555 0.771655 -0.963028 -17.733372 2.621019 0.0 -0.0 -1e-06 -17.34642 -20.095219 -4.20178 21.757559 -1.638374 3.866428 1e-06 -6.338824 1e-06 -1.697589 -22.591743 -6.194007 -0.0 -6e-06 -1e-06 145.799973 -76.652451 41.035236 89.081749 4.436931 -13.767706 16.556282 -0.879803 -0.231454 30.757673 68.5952 29.906164 22.182114 -20.375898 49.933327 -16.701817 -16.74353 28.476536 -4e-06 -12.690602 0.0 16.516422 -18.222788 2.57624 -0.105919 -1.513856 -4.275882 -5.039041 -5.61287 -2.953557 4e-06 -11.020523 -2e-06 -6.111297 -15.895334 -3.840471 0.0 -1e-06 0.0 -10.28337 -5.680289 -4.341838 11.028296 -11.302406 -2.372634 -1.384267 -14.238579 -6.320122 -0.62544 -26.924189 -3.827601 -4.826387 -50.065353 -3.635586 -13.708526 -7.363475 -3.720939 18.141153 -14.052741 -3.242676 4e-06 -18.787271 -1e-06 -0.429712 -8.456042 2.555504 0.0 -1e-06 -0.0 -15.923536 -20.094484 -5.473582 30.419214 -7.190826 1.735925 3e-06 -8.162927 -1e-06 -1.861901 -22.861469 -6.167942 -1e-06 -2e-06 -1e-06 112.518532 -9.188119 -0.238456 118.357552 0.150221 0.458877 -73.691483 0.790369 10.937469 -18.432133 1.938338 1.596995 -0.999998 -0.0 -0.0 -73.268806 -4.776255 3.395789 118.561157 -0.377431 0.113857 -58.075714 15.314828 -1.49639 -13.157272 0.577633 1.812191 -1.000003 0.0 0.0 
0.0 0.0 0.0 0.0 -0.0 0.0 4.529535 48.183628 2.138946 87.436287 -59.901653 89.300903 9.990569 0.514011 -0.038333 -4.902287 0.271928 0.389397 19.87023 1.637498 -0.400371 13.238651 -5.304074 2.10938 -2.584468 -0.106056 0.564871 -29.031696 -0.599932 0.596332 7e-06 0.0 -0.0 -0.162794 -0.019907 0.002285 -0.158887 0.035314 -0.002291 -0.148032 -0.075561 0.006196 -59.401672 -69.962227 66.506386 91.52874 2.927478 -21.287949 10.231895 -1.375015 0.008236 10.9476 69.763 10.075154 17.636625 -26.322733 52.411205 -19.466658 -14.395598 29.410389 -1e-06 -8.774821 -1e-06 15.465311 -17.945024 6.803412 -0.609777 -1.795654 -3.889328 -4.807088 -11.046807 -2.937851 4e-06 -20.976015 -1e-06 -5.019969 -25.033556 -4.031881 6e-06 0.0 1e-06 -10.634534 -5.686971 -3.565588 10.573272 -17.922949 -3.113901 2e-06 -13.821208 0.0 -0.501777 -31.181498 -4.027015 -10.434348 -59.019424 6.823556 -13.982712 -7.150199 -2.875042 13.772728 -8.401489 -3.218241 0.347734 -34.211544 0.771654 -0.963028 -17.733366 2.621019 0.0 -0.0 0.0 -17.346416 -20.095215 -4.201784 21.757557 -1.638374 3.866428 2e-06 -6.338822 1e-06 -1.697589 -22.591745 -6.194007 -1e-06 -6e-06 -2e-06 146.317032 -76.567696 40.558983 88.800102 4.520363 -13.71437 16.528614 -0.820981 -0.230082 30.303019 68.723289 29.72817 22.182112 -20.375898 49.933327 -16.701813 -16.743525 28.47653 -2e-06 -12.6906 -0.0 16.510084 -18.172029 2.642603 -0.105919 -1.513857 -4.275882 -5.03904 -5.61287 -2.953556 3e-06 -11.020525 -2e-06 -6.111297 -15.895334 -3.84047 0.0 0.0 -1e-06 -10.28337 -5.68029 -4.341838 11.028294 -11.302407 -2.372633 -1.384268 -14.238581 -6.32012 -0.625438 -26.924194 -3.827601 -4.82194 -50.091991 -3.559536 -13.708523 -7.363477 -3.720939 18.14115 -14.052739 -3.242676 5e-06 -18.78727 -1e-06 -0.429711 -8.456039 2.555504 0.0 -1e-06 -0.0 -15.923534 -20.094486 -5.473584 30.41921 -7.190826 1.735925 3e-06 -8.162925 1e-06 -1.861902 -22.861469 -6.16794 -1e-06 -2e-06 -1e-06 112.356216 -9.109286 -0.038945 118.454651 0.164132 0.469362 -74.236176 0.94727 10.996839 -18.881323 1.942788 1.579447 -0.999998 0.0 -0.0 -73.381317 -4.768431 3.360085 118.6483 -0.326532 0.110012 -58.372833 15.100373 -1.762439 -13.477304 0.574174 1.817359 -1.000002 -0.0 -0.0 
